<?xml version="1.0" standalone="no"?>
<!DOCTYPE svg PUBLIC "-//W3C//DTD SVG 20010904//EN"
 "http://www.w3.org/TR/2001/REC-SVG-20010904/DTD/svg10.dtd">
<svg version="1.0" xmlns="http://www.w3.org/2000/svg"
 width="261.000000pt" height="261.000000pt" viewBox="0 0 261.000000 261.000000"
 preserveAspectRatio="xMidYMid meet">
<metadata>
Created by potrace 1.14, written by Peter Selinger 2001-2017
</metadata>
<g transform="translate(0.000000,261.000000) scale(0.100000,-0.100000)"
fill="#000000" stroke="none">
<path d="M1025 2004 c-148 -96 -309 -199 -356 -229 -47 -31 -186 -120 -310
-200 -123 -79 -252 -161 -287 -182 -91 -55 -82 -67 49 -66 l106 1 424 263
c233 145 473 294 534 331 60 37 114 68 120 68 9 0 199 -113 231 -137 5 -4 19
-13 30 -19 10 -6 199 -123 419 -259 l399 -248 104 -1 c57 -1 106 3 109 8 8 13
-23 38 -157 121 -69 43 -174 111 -235 150 -120 78 -622 400 -791 508 -58 37
-109 67 -112 66 -4 0 -128 -79 -277 -175z"/>
<path d="M1244 1340 c-106 -24 -168 -123 -160 -255 9 -132 80 -210 199 -219
150 -11 254 134 218 303 -27 126 -136 198 -257 171z"/>
<path d="M385 1318 c-3 -7 -4 -209 -3 -448 l3 -435 80 0 80 0 0 445 0 445 -78
3 c-56 2 -79 -1 -82 -10z"/>
<path d="M2077 1323 c-2 -5 -3 -206 -3 -448 l1 -440 75 -3 c55 -2 77 1 85 11
8 11 13 720 6 870 -1 15 -12 17 -80 17 -44 0 -82 -3 -84 -7z"/>
</g>
</svg>
