<?xml version="1.0" standalone="no"?>
<!DOCTYPE svg PUBLIC "-//W3C//DTD SVG 20010904//EN"
 "http://www.w3.org/TR/2001/REC-SVG-20010904/DTD/svg10.dtd">
<svg version="1.0" xmlns="http://www.w3.org/2000/svg"
 width="261.000000pt" height="261.000000pt" viewBox="0 0 261.000000 261.000000"
 preserveAspectRatio="xMidYMid meet">
<metadata>
Created by potrace 1.14, written by Peter Selinger 2001-2017
</metadata>
<g transform="translate(0.000000,261.000000) scale(0.100000,-0.100000)"
fill="#000000" stroke="none">
<path d="M505 2111 c-45 -11 -69 -26 -104 -66 -46 -53 -63 -101 -67 -187 -6
-139 44 -234 147 -280 54 -24 145 -19 187 10 56 41 105 171 69 185 -16 6 -23
-6 -32 -52 -8 -43 -39 -92 -66 -106 -37 -20 -99 -19 -127 1 -99 69 -96 407 4
452 69 32 132 -8 174 -112 12 -31 28 -55 34 -53 7 2 12 41 14 102 3 104 -6
129 -39 99 -14 -12 -21 -12 -59 1 -45 16 -86 18 -135 6z"/>
<path d="M1296 2101 c-23 -25 -13 -74 17 -88 61 -28 111 53 58 94 -24 18 -56
16 -75 -6z"/>
<path d="M800 2095 c0 -8 6 -15 13 -15 33 0 41 -42 43 -225 2 -193 -6 -244
-37 -252 -10 -3 -19 -12 -19 -19 0 -11 22 -14 105 -14 58 0 105 2 105 4 0 1
-13 17 -30 34 -16 18 -31 42 -31 54 -9 161 -3 202 31 230 21 17 66 16 85 -3
13 -13 15 -228 2 -256 -5 -13 -18 -25 -29 -28 -10 -4 -18 -13 -18 -21 0 -11
20 -14 100 -14 105 0 119 7 78 39 -19 16 -22 31 -28 148 -8 170 -24 197 -116
202 -34 2 -48 -3 -77 -28 l-35 -31 3 105 3 105 -74 0 c-59 0 -74 -3 -74 -15z"/>
<path d="M1633 1925 c-24 -24 -34 -29 -32 -17 4 40 0 42 -71 42 -54 0 -70 -3
-70 -14 0 -8 9 -17 19 -21 28 -9 40 -57 40 -160 -1 -96 -17 -155 -43 -155 -9
0 -16 -7 -16 -15 0 -12 18 -15 98 -15 54 0 102 3 105 7 4 3 -7 18 -24 33 -30
25 -32 29 -34 111 -3 92 12 155 42 176 14 11 20 11 32 -2 12 -12 12 -19 2 -42
-11 -23 -10 -29 5 -40 39 -29 86 8 88 67 2 82 -78 108 -141 45z"/>
<path d="M1973 1941 c-27 -17 -33 -18 -33 -6 0 12 -15 15 -70 15 -74 0 -86 -9
-50 -38 31 -25 37 -71 34 -247 -3 -186 -4 -192 -32 -216 -40 -32 -27 -39 76
-39 81 0 99 3 99 15 0 8 -8 17 -18 20 -22 7 -28 24 -35 96 l-5 59 36 -21 c26
-16 46 -20 75 -16 82 11 122 70 126 187 5 125 -41 198 -130 207 -29 3 -50 -2
-73 -16z m64 -36 c30 -21 41 -60 41 -146 0 -86 -17 -134 -52 -151 -22 -9 -29
-8 -45 6 -11 10 -24 30 -29 45 -15 43 -12 171 5 213 13 32 22 40 53 47 3 0 15
-6 27 -14z"/>
<path d="M1240 1936 c0 -8 9 -17 19 -21 28 -9 40 -57 40 -160 -1 -96 -17 -155
-43 -155 -9 0 -16 -7 -16 -15 0 -12 18 -15 100 -15 63 0 100 4 100 10 0 6 -12
22 -27 35 l-28 23 0 156 0 156 -72 0 c-57 0 -73 -3 -73 -14z"/>
<path d="M1123 1475 c-12 -8 -27 -31 -33 -50 -6 -19 -18 -35 -26 -35 -8 0 -14
-7 -14 -16 0 -10 5 -14 15 -10 14 5 16 -7 14 -89 -1 -66 -6 -98 -15 -106 -26
-22 -14 -29 51 -29 37 0 65 4 65 10 0 6 -4 10 -8 10 -19 0 -32 55 -32 129 0
74 1 78 22 77 11 0 23 5 25 12 3 7 -5 12 -21 12 -19 0 -27 6 -32 26 -4 14 -2
30 4 36 13 13 35 1 26 -14 -10 -16 17 -28 38 -17 24 13 23 46 -1 59 -27 14
-53 13 -78 -5z"/>
<path d="M1263 1379 c-26 -13 -63 -82 -58 -107 2 -9 4 -28 5 -42 3 -70 101
-112 167 -71 58 37 69 140 20 197 -26 30 -97 42 -134 23z m83 -30 c23 -26 24
-142 1 -167 -25 -28 -48 -23 -63 14 -26 63 -7 171 30 171 9 0 23 -8 32 -18z"/>
<path d="M1450 1380 c0 -5 7 -13 16 -18 25 -14 25 -163 1 -190 -9 -10 -17 -22
-17 -25 0 -4 29 -7 65 -7 68 0 76 4 48 25 -22 16 -30 129 -11 164 17 31 33 28
33 -7 0 -33 32 -43 52 -16 17 24 16 49 -3 68 -21 22 -50 20 -74 -4 l-20 -20 0
20 c0 17 -7 20 -45 20 -25 0 -45 -4 -45 -10z"/>
<path d="M310 1113 c-49 -10 -107 -61 -137 -120 -24 -50 -28 -69 -28 -143 1
-69 5 -94 24 -130 38 -74 98 -117 175 -126 108 -14 180 43 201 160 6 32 5 36
-14 36 -15 0 -21 -6 -21 -22 -1 -37 -36 -105 -64 -123 -34 -23 -94 -23 -128
-1 -87 57 -100 318 -20 407 67 74 161 18 206 -124 3 -10 12 -17 19 -15 8 3 13
34 14 99 2 99 -7 121 -38 93 -15 -14 -21 -13 -54 0 -36 15 -83 18 -135 9z"/>
<path d="M1737 1102 c-33 -36 -8 -92 40 -92 25 0 53 30 53 57 0 46 -62 69 -93
35z"/>
<path d="M585 1101 c-3 -6 3 -15 14 -20 31 -17 38 -59 39 -221 0 -168 -8 -214
-39 -230 -36 -20 -9 -30 81 -30 89 0 117 10 81 29 -27 15 -38 54 -39 142 -1
103 22 148 75 149 42 0 53 -34 50 -153 -2 -106 -3 -110 -30 -131 -15 -12 -27
-25 -27 -29 0 -9 184 -9 193 0 4 3 -5 16 -18 29 -15 14 -25 34 -25 51 -1 200
-12 247 -61 274 -37 19 -110 5 -137 -26 l-24 -28 4 102 4 101 -67 0 c-37 0
-70 -4 -74 -9z"/>
<path d="M2002 1051 c-14 -44 -54 -89 -89 -97 -30 -8 -24 -29 8 -29 l24 0 0
-143 0 -144 28 -24 c42 -36 104 -30 132 13 21 32 5 55 -20 29 -12 -12 -21 -13
-35 -6 -17 9 -18 23 -17 142 l2 133 25 1 c46 3 50 4 50 19 0 11 -11 15 -40 15
l-39 0 4 65 c4 50 2 65 -9 65 -7 0 -18 -17 -24 -39z"/>
<path d="M1083 951 c-53 -34 -69 -84 -35 -114 19 -18 59 -22 78 -9 21 14 22
39 3 55 -22 19 -24 33 -6 44 43 27 97 -4 97 -55 0 -35 -21 -55 -75 -72 -57
-19 -103 -51 -116 -82 -13 -31 -5 -91 14 -106 39 -31 110 -25 151 13 24 22 27
23 33 7 16 -40 71 -55 108 -28 19 14 19 14 -2 33 -20 16 -23 28 -24 118 -3
164 -30 206 -136 212 -45 3 -65 0 -90 -16z m127 -261 c-15 -37 -51 -53 -77
-35 -37 26 -18 81 39 116 l43 26 3 -40 c2 -22 -2 -52 -8 -67z"/>
<path d="M1533 940 l-33 -32 0 26 c0 26 -1 26 -70 26 -38 0 -70 -2 -70 -5 0
-2 12 -16 28 -30 27 -25 27 -27 27 -146 0 -120 0 -121 -28 -143 -15 -12 -24
-25 -21 -29 4 -4 49 -7 101 -7 76 0 93 3 93 15 0 8 -6 15 -14 15 -28 0 -39 32
-42 113 -2 45 0 94 3 109 5 27 37 68 53 68 15 0 22 -40 10 -55 -15 -18 3 -45
29 -45 35 0 61 30 61 69 0 48 -17 70 -60 77 -30 5 -40 1 -67 -26z"/>
<path d="M1680 955 c0 -2 12 -16 28 -30 27 -25 27 -27 27 -146 0 -120 0 -121
-28 -143 -15 -12 -24 -25 -21 -29 9 -9 179 -9 188 0 3 4 -6 17 -21 29 l-28 22
0 151 0 151 -72 0 c-40 0 -73 -2 -73 -5z"/>
<path d="M2126 951 c-3 -5 1 -15 10 -22 20 -16 52 -79 98 -194 20 -49 43 -102
51 -116 12 -23 12 -29 -5 -57 -20 -32 -53 -56 -64 -45 -3 3 -6 15 -6 25 0 29
-46 23 -66 -8 -36 -54 20 -111 83 -85 33 13 79 84 113 170 51 132 116 265 147
302 31 37 22 41 -77 37 l-74 -3 27 -29 c15 -16 27 -40 27 -55 -1 -34 -44 -157
-55 -154 -13 2 -64 143 -64 176 -1 16 5 30 14 33 8 4 15 12 15 20 0 11 -19 14
-84 14 -47 0 -87 -4 -90 -9z"/>
</g>
</svg>
